<svg width="21" height="24" viewBox="0 0 21 24" fill="none" xmlns="http://www.w3.org/2000/svg">
<path d="M19.7237 3.5226H15.4156C15.1058 2.50511 14.4672 1.61248 13.595 0.977706C12.7227 0.342935 11.6636 0 10.5753 0C9.48696 0 8.42778 0.342935 7.55555 0.977706C6.68332 1.61248 6.04473 2.50511 5.73492 3.5226H1.27841C0.939669 3.52246 0.614736 3.6535 0.375018 3.88691C0.1353 4.12033 0.00041273 4.43701 0 4.76738V22.7552C0.000412069 23.0852 0.135014 23.4016 0.374283 23.635C0.613552 23.8683 0.937952 23.9996 1.27633 24H19.7237C20.062 23.9996 20.3864 23.8683 20.6257 23.635C20.865 23.4016 20.9996 23.0852 21 22.7552V4.76738C20.9996 4.43737 20.865 4.12098 20.6257 3.88763C20.3864 3.65427 20.062 3.523 19.7237 3.5226ZM10.576 1.46838C11.2617 1.469 11.9326 1.66334 12.5075 2.02789C13.0823 2.39244 13.5366 2.9116 13.8154 3.5226H7.33721C7.61584 2.9116 8.07002 2.39242 8.64481 2.02786C9.21961 1.6633 9.89039 1.46897 10.576 1.46838ZM18.9846 22.532H2.01545C1.94854 22.5322 1.88224 22.5196 1.82035 22.4948C1.75846 22.47 1.7022 22.4336 1.65479 22.3875C1.60739 22.3415 1.56977 22.2868 1.54411 22.2265C1.51844 22.1663 1.50523 22.1016 1.50523 22.0364V5.4862C1.50523 5.35477 1.55876 5.22871 1.65406 5.13577C1.74935 5.04283 1.8786 4.99062 2.01337 4.99062H18.9851C19.1198 4.99062 19.2491 5.04283 19.3444 5.13577C19.4397 5.22871 19.4932 5.35477 19.4932 5.4862V22.0364C19.4932 22.1678 19.4397 22.2939 19.3444 22.3868C19.2491 22.4798 19.1198 22.532 18.9851 22.532H18.9846Z" fill="white"/>
</svg>
