<svg width="25" height="23" viewBox="0 0 25 23" fill="none" xmlns="http://www.w3.org/2000/svg">
<path d="M12.5 23C12.1441 23 11.801 22.8667 11.5335 22.6245C10.5236 21.7113 9.5499 20.8531 8.69083 20.0961L8.68645 20.0922C6.16779 17.8727 3.99284 15.9559 2.47955 14.0678C0.787926 11.957 0 9.95565 0 7.7693C0 5.64507 0.704384 3.68534 1.98326 2.25085C3.2774 0.799395 5.05314 0 6.98395 0C8.42705 0 9.74865 0.471787 10.9119 1.40215C11.499 1.87176 12.0312 2.44651 12.5 3.11691C12.969 2.44651 13.501 1.87176 14.0882 1.40215C15.2515 0.471787 16.5731 0 18.0162 0C19.9469 0 21.7228 0.799395 23.0169 2.25085C24.2958 3.68534 25 5.64507 25 7.7693C25 9.95565 24.2123 11.957 22.5206 14.0676C21.0073 15.9559 18.8326 17.8725 16.3143 20.0918C15.4537 20.8499 14.4785 21.7095 13.4663 22.6249C13.199 22.8667 12.8557 23 12.5 23ZM6.98395 1.51437C5.46703 1.51437 4.07352 2.1404 3.05977 3.27726C2.03094 4.43129 1.46427 6.02652 1.46427 7.7693C1.46427 9.60812 2.12517 11.2527 3.60699 13.1016C5.03922 14.8887 7.16953 16.766 9.63612 18.9397L9.64069 18.9437C10.503 19.7036 11.4805 20.5651 12.4979 21.485C13.5214 20.5634 14.5004 19.7005 15.3645 18.9393C17.8308 16.7656 19.961 14.8887 21.3932 13.1016C22.8748 11.2527 23.5357 9.60812 23.5357 7.7693C23.5357 6.02652 22.9691 4.43129 21.9402 3.27726C20.9267 2.1404 19.533 1.51437 18.0162 1.51437C16.905 1.51437 15.8848 1.87965 14.9839 2.59996C14.1811 3.24215 13.6219 4.05397 13.294 4.62201C13.1254 4.91412 12.8286 5.08847 12.5 5.08847C12.1714 5.08847 11.8746 4.91412 11.706 4.62201C11.3783 4.05397 10.8191 3.24215 10.0161 2.59996C9.11522 1.87965 8.09498 1.51437 6.98395 1.51437Z" fill="white"/>
</svg>
