<svg width="25" height="24" viewBox="0 0 25 24" fill="none" xmlns="http://www.w3.org/2000/svg">
<path d="M1.27949 2.33535H24.0994C24.5217 2.33535 24.8571 1.99995 24.8571 1.57759C24.8571 1.15523 24.5217 0.819824 24.0994 0.819824H1.27949C0.857132 0.819824 0.521729 1.15523 0.521729 1.57759C0.521729 1.99995 0.857132 2.33535 1.27949 2.33535Z" fill="black"/>
<path d="M1.27949 12.7951H24.0994C24.5217 12.7951 24.8571 12.4597 24.8571 12.0373C24.8571 11.6149 24.5217 11.2795 24.0994 11.2795H1.27949C0.857132 11.2795 0.521729 11.6149 0.521729 12.0373C0.521729 12.4597 0.857132 12.7951 1.27949 12.7951Z" fill="black"/>
<path d="M10.3725 21.8633H24.211C24.5713 21.8633 24.857 22.149 24.857 22.5092V22.7328C24.857 23.0931 24.5713 23.3788 24.211 23.3788H10.3725C10.0123 23.3788 9.72656 23.0931 9.72656 22.7328V22.5092C9.72656 22.1614 10.0123 21.8633 10.3725 21.8633Z" fill="black"/>
</svg>
