<svg width="24" height="24" viewBox="0 0 24 24" fill="none" xmlns="http://www.w3.org/2000/svg">
<path d="M23.7761 22.7037L17.8473 16.7748C19.3801 14.9942 20.3109 12.6823 20.3109 10.1529C20.3109 4.54279 15.7429 -0.0151385 10.1276 3.77888e-05C4.56303 0.015214 0.015214 4.56303 3.77471e-05 10.1276C-0.0151385 15.7378 4.54785 20.3109 10.1529 20.3109C12.6823 20.3109 14.9942 19.3852 16.7748 17.8473L22.7037 23.7761C23.0022 24.0746 23.4827 24.0746 23.7761 23.7761C24.0746 23.4777 24.0746 22.9971 23.7761 22.7037ZM1.51766 10.1529C1.51766 5.39266 5.39266 1.51766 10.1529 1.51766C14.9132 1.51766 18.7882 5.39266 18.7882 10.1529C18.7882 14.9132 14.9132 18.7882 10.1529 18.7882C5.39266 18.7882 1.51766 14.9183 1.51766 10.1529Z" fill="black"/>
</svg>
