<svg width="23" height="23" viewBox="0 0 23 23" fill="none" xmlns="http://www.w3.org/2000/svg">
<path d="M22.7855 21.7577L17.1037 16.0759C18.5726 14.3694 19.4646 12.1539 19.4646 9.7299C19.4646 4.35351 15.0869 -0.0145077 9.70566 3.62143e-05C4.3729 0.0145801 0.0145801 4.3729 3.61743e-05 9.70566C-0.0145077 15.0821 4.35836 19.4646 9.7299 19.4646C12.1539 19.4646 14.3694 18.5774 16.0759 17.1037L21.7577 22.7855C22.0437 23.0715 22.5043 23.0715 22.7855 22.7855C23.0715 22.4994 23.0715 22.0389 22.7855 21.7577ZM1.45443 9.7299C1.45443 5.16797 5.16797 1.45443 9.7299 1.45443C14.2918 1.45443 18.0054 5.16797 18.0054 9.7299C18.0054 14.2918 14.2918 18.0054 9.7299 18.0054C5.16797 18.0054 1.45443 14.2967 1.45443 9.7299Z" fill="white"/>
</svg>
