<svg width="18" height="23" viewBox="0 0 18 23" fill="none" xmlns="http://www.w3.org/2000/svg">
<path d="M17.0863 23C16.5817 23 16.1726 22.5978 16.1726 22.1016C16.1726 18.5842 13.2624 15.7227 9.68528 15.7227H8.31472C4.73761 15.7227 1.82741 18.5842 1.82741 22.1016C1.82741 22.5978 1.41835 23 0.913706 23C0.409066 23 0 22.5978 0 22.1016C0 17.5934 3.72997 13.9258 8.31472 13.9258H9.68528C14.27 13.9258 18 17.5934 18 22.1016C18 22.5978 17.5909 23 17.0863 23Z" fill="white"/>
<path d="M8.90872 12.1289C5.50796 12.1289 2.74121 9.40839 2.74121 6.06445C2.74121 2.72051 5.50796 0 8.90872 0C12.3095 0 15.0762 2.72051 15.0762 6.06445C15.0762 9.40839 12.3095 12.1289 8.90872 12.1289ZM8.90872 1.79688C6.51559 1.79688 4.56862 3.71131 4.56862 6.06445C4.56862 8.4176 6.51559 10.332 8.90872 10.332C11.3019 10.332 13.2488 8.4176 13.2488 6.06445C13.2488 3.71131 11.3019 1.79688 8.90872 1.79688Z" fill="white"/>
</svg>
