<svg width="19" height="24" viewBox="0 0 19 24" fill="none" xmlns="http://www.w3.org/2000/svg">
<path d="M18.0355 24C17.5029 24 17.0711 23.5803 17.0711 23.0625C17.0711 19.3922 13.9992 16.4062 10.2234 16.4062H8.77665C5.00081 16.4062 1.92893 19.3922 1.92893 23.0625C1.92893 23.5803 1.49714 24 0.964467 24C0.431792 24 0 23.5803 0 23.0625C0 18.3584 3.9372 14.5312 8.77665 14.5312H10.2234C15.0628 14.5312 19 18.3584 19 23.0625C19 23.5803 18.5682 24 18.0355 24Z" fill="black"/>
<path d="M9.40371 12.6562C5.81401 12.6562 2.89355 9.81745 2.89355 6.32812C2.89355 2.8388 5.81401 0 9.40371 0C12.9934 0 15.9139 2.8388 15.9139 6.32812C15.9139 9.81745 12.9934 12.6562 9.40371 12.6562ZM9.40371 1.875C6.87762 1.875 4.82249 3.87267 4.82249 6.32812C4.82249 8.78358 6.87762 10.7812 9.40371 10.7812C11.9298 10.7812 13.9849 8.78358 13.9849 6.32812C13.9849 3.87267 11.9298 1.875 9.40371 1.875Z" fill="black"/>
</svg>
