<svg width="81" height="81" viewBox="0 0 81 81" fill="none" xmlns="http://www.w3.org/2000/svg">
<path d="M77.76 0H3.24C1.44787 0 0 1.44787 0 3.24V77.76C0 79.5521 1.44787 81 3.24 81H77.76C79.5521 81 81 79.5521 81 77.76V3.24C81 1.44787 79.5521 0 77.76 0ZM74.52 74.52H55.8799V49.6328H66.4099L67.9894 37.4119H55.8799V29.6055C55.8799 26.0618 56.862 23.652 61.9346 23.652H68.4045V12.717C67.2806 12.5651 63.4433 12.231 58.968 12.231C49.6328 12.231 43.2439 17.9314 43.2439 28.3905V37.4017H32.6936V49.6226H43.254V74.52H6.48V6.48H74.52V74.52Z" fill="#D61016"/>
</svg>
