<svg width="25" height="24" viewBox="0 0 25 24" fill="none" xmlns="http://www.w3.org/2000/svg">
<path d="M24.2639 2.66385H21.3971C21.1383 1.1518 19.8191 0 18.236 0C16.6529 0 15.3337 1.1518 15.0749 2.66385H0.466861C0.213161 2.66385 0.00512695 2.87188 0.00512695 3.12558V3.29302C0.00512695 3.54672 0.213161 3.75476 0.466861 3.75476H15.0749C15.3337 5.26681 16.6529 6.4186 18.236 6.4186C19.8191 6.4186 21.1383 5.26681 21.3971 3.75476H24.2639C24.5176 3.75476 24.7256 3.54672 24.7256 3.29302V3.12558C24.7307 2.87188 24.5227 2.66385 24.2639 2.66385ZM18.236 5.40888C17.2161 5.40888 16.3535 4.70867 16.11 3.75983C16.1049 3.73446 16.0998 3.70909 16.0948 3.68372C16.0897 3.65835 16.0846 3.63298 16.0795 3.60761C16.0542 3.48076 16.044 3.34884 16.044 3.21184C16.044 3.07484 16.0542 2.94799 16.0795 2.81607C16.0846 2.7907 16.0897 2.76533 16.0948 2.73996C16.0998 2.71459 16.1049 2.68922 16.11 2.66385C16.3535 1.71501 17.2161 1.0148 18.236 1.0148C19.2559 1.0148 20.1184 1.71501 20.362 2.66385C20.3671 2.68922 20.3721 2.71459 20.3772 2.73996C20.3823 2.76533 20.3874 2.7907 20.3924 2.81607C20.4178 2.94292 20.428 3.07484 20.428 3.21184C20.428 3.34884 20.4178 3.47569 20.3924 3.60761C20.3874 3.63298 20.3823 3.65835 20.3772 3.68372C20.3721 3.70909 20.3671 3.73446 20.362 3.75983C20.1184 4.70359 19.2559 5.40888 18.236 5.40888Z" fill="white"/>
<path d="M24.2638 11.4571H7.04271C6.78393 9.94501 5.46469 8.79321 3.88161 8.79321C2.29852 8.79321 0.979281 9.95008 0.715433 11.4571H0.461734C0.208034 11.4571 0 11.6651 0 11.9188V12.0862C0 12.3399 0.208034 12.548 0.461734 12.548H0.715433C0.974207 14.06 2.29345 15.2118 3.87653 15.2118C5.45962 15.2118 6.77886 14.06 7.03763 12.548H24.2638C24.5175 12.548 24.7256 12.3399 24.7256 12.0862V11.9188C24.7307 11.6651 24.5226 11.4571 24.2638 11.4571ZM3.88161 14.197C2.86173 14.197 1.99915 13.4968 1.7556 12.548C1.75053 12.5226 1.74545 12.4972 1.74038 12.4719C1.73531 12.4465 1.73023 12.4211 1.72516 12.3957C1.69979 12.2689 1.68964 12.137 1.68964 12C1.68964 11.8681 1.69979 11.7361 1.72516 11.6093C1.73023 11.5839 1.73531 11.5585 1.74038 11.5332C1.74545 11.5078 1.75053 11.4824 1.76068 11.4571C2.00423 10.5082 2.86681 9.80801 3.88668 9.80801C4.91163 9.80801 5.76913 10.5133 6.01268 11.4571C6.01776 11.4824 6.02283 11.5078 6.03298 11.5332C6.03805 11.5585 6.04313 11.5839 6.0482 11.6093C6.07357 11.7361 6.08372 11.8681 6.08372 12C6.08372 12.137 6.07357 12.2689 6.0482 12.3957C6.04313 12.4211 6.03805 12.4465 6.03298 12.4719C6.02791 12.4972 6.02283 12.5226 6.01268 12.548C5.75899 13.4968 4.90148 14.197 3.88161 14.197Z" fill="white"/>
<path d="M24.2639 20.2451H15.9933C15.7345 18.7331 14.4153 17.5813 12.8322 17.5813C11.2491 17.5813 9.92986 18.7331 9.67109 20.2451H0.466861C0.213161 20.2451 0.00512695 20.4532 0.00512695 20.7069V20.8743C0.00512695 21.128 0.213161 21.3361 0.466861 21.3361H9.66602C9.92479 22.8481 11.244 23.9999 12.8271 23.9999C14.4102 23.9999 15.7294 22.8481 15.9882 21.3361H24.2639C24.5176 21.3361 24.7256 21.128 24.7256 20.8743V20.7069C24.7307 20.4532 24.5227 20.2451 24.2639 20.2451ZM12.8271 22.9851C11.8022 22.9851 10.9447 22.2849 10.7011 21.3361C10.696 21.3107 10.691 21.2853 10.6808 21.2599C10.6707 21.2346 10.6707 21.2092 10.6656 21.1838C10.6402 21.057 10.6301 20.9251 10.6301 20.7881C10.6301 20.6511 10.6402 20.5242 10.6656 20.3923C10.6707 20.3669 10.6757 20.3416 10.6808 20.3162C10.6859 20.2908 10.691 20.2654 10.7011 20.2401C10.9447 19.3014 11.8072 18.5961 12.8271 18.5961C13.847 18.5961 14.7096 19.2963 14.9531 20.2451C14.9582 20.2705 14.9633 20.2959 14.9734 20.3213C14.9836 20.3466 14.9836 20.372 14.9886 20.3974C15.014 20.5242 15.0242 20.6561 15.0242 20.7931C15.0242 20.9251 15.014 21.057 14.9886 21.1889C14.9836 21.2143 14.9785 21.2397 14.9734 21.265C14.9683 21.2904 14.9633 21.3158 14.9531 21.3411C14.7096 22.2849 13.8521 22.9851 12.8271 22.9851Z" fill="white"/>
</svg>
