<svg width="23" height="22" viewBox="0 0 23 22" fill="none" xmlns="http://www.w3.org/2000/svg">
<path d="M22.2398 2.44188H19.6119C19.3747 1.05582 18.1653 0 16.7142 0C15.263 0 14.0537 1.05582 13.8165 2.44188H0.4257C0.19314 2.44188 0.00244141 2.63258 0.00244141 2.86513V3.01862C0.00244141 3.25118 0.19314 3.44188 0.4257 3.44188H13.8165C14.0537 4.82794 15.263 5.88376 16.7142 5.88376C18.1653 5.88376 19.3747 4.82794 19.6119 3.44188H22.2398C22.4724 3.44188 22.6631 3.25118 22.6631 3.01862V2.86513C22.6677 2.63258 22.477 2.44188 22.2398 2.44188ZM16.7142 4.95817C15.7793 4.95817 14.9886 4.31631 14.7653 3.44653C14.7607 3.42328 14.756 3.40002 14.7514 3.37677C14.7467 3.35351 14.7421 3.33025 14.7374 3.307C14.7142 3.19072 14.7049 3.06979 14.7049 2.94421C14.7049 2.81862 14.7142 2.70234 14.7374 2.58141C14.7421 2.55816 14.7467 2.5349 14.7514 2.51164C14.756 2.48839 14.7607 2.46513 14.7653 2.44188C14.9886 1.5721 15.7793 0.930239 16.7142 0.930239C17.6491 0.930239 18.4398 1.5721 18.663 2.44188C18.6677 2.46513 18.6723 2.48839 18.677 2.51164C18.6816 2.5349 18.6863 2.55816 18.6909 2.58141C18.7142 2.69769 18.7235 2.81862 18.7235 2.94421C18.7235 3.06979 18.7142 3.18607 18.6909 3.307C18.6863 3.33025 18.6816 3.35351 18.677 3.37677C18.6723 3.40002 18.6677 3.42328 18.663 3.44653C18.4398 4.31166 17.6491 4.95817 16.7142 4.95817Z" fill="black"/>
<path d="M22.242 10.502H6.45586C6.21865 9.11594 5.00934 8.06012 3.55816 8.06012C2.10699 8.06012 0.89768 9.12059 0.655818 10.502H0.423259C0.190699 10.502 0 10.6927 0 10.9253V11.0787C0 11.3113 0.190699 11.502 0.423259 11.502H0.655818C0.893029 12.8881 2.10234 13.9439 3.55351 13.9439C5.00468 13.9439 6.21399 12.8881 6.45121 11.502H22.242C22.4746 11.502 22.6653 11.3113 22.6653 11.0787V10.9253C22.6699 10.6927 22.4792 10.502 22.242 10.502ZM3.55816 13.0136C2.62327 13.0136 1.83257 12.3718 1.60931 11.502C1.60466 11.4787 1.60001 11.4555 1.59536 11.4322C1.59071 11.409 1.58606 11.3857 1.58141 11.3625C1.55815 11.2462 1.54885 11.1253 1.54885 10.9997C1.54885 10.8787 1.55815 10.7578 1.58141 10.6415C1.58606 10.6183 1.59071 10.595 1.59536 10.5718C1.60001 10.5485 1.60466 10.5253 1.61396 10.502C1.83722 9.63222 2.62792 8.99036 3.56281 8.99036C4.50236 8.99036 5.28841 9.63687 5.51166 10.502C5.51632 10.5253 5.52097 10.5485 5.53027 10.5718C5.53492 10.595 5.53957 10.6183 5.54422 10.6415C5.56748 10.7578 5.57678 10.8787 5.57678 10.9997C5.57678 11.1253 5.56748 11.2462 5.54422 11.3625C5.53957 11.3857 5.53492 11.409 5.53027 11.4322C5.52562 11.4555 5.52097 11.4787 5.51166 11.502C5.2791 12.3718 4.49305 13.0136 3.55816 13.0136Z" fill="black"/>
<path d="M22.2398 18.5581H14.6584C14.4211 17.172 13.2118 16.1162 11.7607 16.1162C10.3095 16.1162 9.10017 17.172 8.86296 18.5581H0.4257C0.19314 18.5581 0.00244141 18.7488 0.00244141 18.9813V19.1348C0.00244141 19.3674 0.19314 19.5581 0.4257 19.5581H8.85831C9.09552 20.9441 10.3048 22 11.756 22C13.2072 22 14.4165 20.9441 14.6537 19.5581H22.2398C22.4724 19.5581 22.6631 19.3674 22.6631 19.1348V18.9813C22.6677 18.7488 22.477 18.5581 22.2398 18.5581ZM11.756 21.0697C10.8165 21.0697 10.0304 20.4279 9.80716 19.5581C9.80251 19.5348 9.79785 19.5116 9.78855 19.4883C9.77925 19.4651 9.77925 19.4418 9.7746 19.4186C9.75134 19.3023 9.74204 19.1813 9.74204 19.0558C9.74204 18.9302 9.75134 18.8139 9.7746 18.693C9.77925 18.6697 9.7839 18.6465 9.78855 18.6232C9.7932 18.5999 9.79785 18.5767 9.80716 18.5534C10.0304 17.693 10.8211 17.0464 11.756 17.0464C12.6909 17.0464 13.4816 17.6883 13.7049 18.5581C13.7095 18.5813 13.7142 18.6046 13.7235 18.6279C13.7328 18.6511 13.7328 18.6744 13.7374 18.6976C13.7607 18.8139 13.77 18.9348 13.77 19.0604C13.77 19.1813 13.7607 19.3023 13.7374 19.4232C13.7328 19.4465 13.7281 19.4697 13.7235 19.493C13.7188 19.5162 13.7142 19.5395 13.7049 19.5627C13.4816 20.4279 12.6955 21.0697 11.756 21.0697Z" fill="black"/>
</svg>
