<svg width="31" height="29" viewBox="0 0 31 29" fill="none" xmlns="http://www.w3.org/2000/svg">
<g filter="url(#filter0_d)">
<path d="M15.5 25C15.1441 25 14.801 24.8667 14.5335 24.6245C13.5236 23.7113 12.5499 22.8531 11.6908 22.0961L11.6864 22.0922C9.16779 19.8727 6.99284 17.9559 5.47955 16.0678C3.78793 13.957 3 11.9556 3 9.7693C3 7.64507 3.70438 5.68534 4.98326 4.25085C6.2774 2.79939 8.05314 2 9.98395 2C11.427 2 12.7486 2.47179 13.9119 3.40215C14.499 3.87176 15.0312 4.44651 15.5 5.11691C15.969 4.44651 16.501 3.87176 17.0882 3.40215C18.2515 2.47179 19.5731 2 21.0162 2C22.9469 2 24.7228 2.79939 26.0169 4.25085C27.2958 5.68534 28 7.64507 28 9.7693C28 11.9556 27.2123 13.957 25.5206 16.0676C24.0073 17.9559 21.8326 19.8725 19.3143 22.0918C18.4537 22.8499 17.4785 23.7095 16.4663 24.6249C16.199 24.8667 15.8557 25 15.5 25ZM9.98395 3.51437C8.46703 3.51437 7.07352 4.1404 6.05977 5.27726C5.03094 6.43129 4.46427 8.02652 4.46427 9.7693C4.46427 11.6081 5.12517 13.2527 6.60699 15.1016C8.03922 16.8887 10.1695 18.766 12.6361 20.9397L12.6407 20.9437C13.503 21.7036 14.4805 22.5651 15.4979 23.485C16.5214 22.5634 17.5004 21.7005 18.3645 20.9393C20.8308 18.7656 22.961 16.8887 24.3932 15.1016C25.8748 13.2527 26.5357 11.6081 26.5357 9.7693C26.5357 8.02652 25.9691 6.43129 24.9402 5.27726C23.9267 4.1404 22.533 3.51437 21.0162 3.51437C19.905 3.51437 18.8848 3.87965 17.9839 4.59996C17.1811 5.24215 16.6219 6.05397 16.294 6.62201C16.1254 6.91412 15.8286 7.08847 15.5 7.08847C15.1714 7.08847 14.8746 6.91412 14.706 6.62201C14.3783 6.05397 13.8191 5.24215 13.0161 4.59996C12.1152 3.87965 11.095 3.51437 9.98395 3.51437Z" fill="white"/>
</g>
<defs>
<filter id="filter0_d" x="0" y="0" width="31" height="29" filterUnits="userSpaceOnUse" color-interpolation-filters="sRGB">
<feFlood flood-opacity="0" result="BackgroundImageFix"/>
<feColorMatrix in="SourceAlpha" type="matrix" values="0 0 0 0 0 0 0 0 0 0 0 0 0 0 0 0 0 0 127 0"/>
<feOffset dy="1"/>
<feGaussianBlur stdDeviation="1.5"/>
<feColorMatrix type="matrix" values="0 0 0 0 0.520833 0 0 0 0 0.520833 0 0 0 0 0.520833 0 0 0 1 0"/>
<feBlend mode="normal" in2="BackgroundImageFix" result="effect1_dropShadow"/>
<feBlend mode="normal" in="SourceGraphic" in2="effect1_dropShadow" result="shape"/>
</filter>
</defs>
</svg>
