<svg width="12" height="16" viewBox="0 0 12 16" fill="none" xmlns="http://www.w3.org/2000/svg">
<path d="M5.53849 16C5.18687 16 4.87199 15.8189 4.69624 15.5155C4.69438 15.5123 4.69259 15.5091 4.69079 15.5058L0.69622 8.24379C-0.257289 6.51032 -0.229948 4.45279 0.769371 2.73992C1.74701 1.06417 3.4835 0.0403906 5.4145 0.00126562C5.49699 -0.000421875 5.57993 -0.000421875 5.66236 0.00126562C7.59339 0.0403906 9.32988 1.06417 10.3076 2.73992C11.3069 4.45279 11.3342 6.51029 10.3807 8.24379L6.38613 15.5058C6.38434 15.5091 6.38254 15.5123 6.38069 15.5155C6.20497 15.8188 5.89012 16 5.53849 16ZM5.53846 1.00001C5.50388 1.00001 5.4694 1.00036 5.43498 1.00105C3.85873 1.03298 2.4402 1.87045 1.64045 3.24129C0.819051 4.64926 0.796335 6.3401 1.57973 7.76429L5.53846 14.9612L9.49717 7.76432C10.2806 6.3401 10.2579 4.64926 9.43641 3.24129C8.63666 1.87048 7.21813 1.03298 5.64188 1.00105C5.60755 1.00036 5.57304 1.00001 5.53846 1.00001Z" fill="#D61016"/>
<path d="M5.53839 7.25C4.28929 7.25 3.27307 6.24065 3.27307 5C3.27307 3.75934 4.28929 2.75 5.53839 2.75C6.78749 2.75 7.80371 3.75934 7.80371 5C7.80371 6.24065 6.78752 7.25 5.53839 7.25ZM5.53839 3.75C4.84445 3.75 4.27988 4.31075 4.27988 5C4.27988 5.68925 4.84445 6.25 5.53839 6.25C6.23233 6.25 6.7969 5.68925 6.7969 5C6.7969 4.31075 6.23233 3.75 5.53839 3.75Z" fill="#D61016"/>
</svg>
