<svg width="31" height="29" viewBox="0 0 31 29" fill="none" xmlns="http://www.w3.org/2000/svg">
<g filter="url(#filter0_d)">
<path d="M15.5001 25C15.1442 25 14.8011 24.8667 14.5337 24.6245C13.5237 23.7113 12.55 22.8531 11.691 22.0961L11.6866 22.0922C9.16792 19.8727 6.99297 17.9559 5.47968 16.0678C3.78805 13.957 3.00012 11.9556 3.00012 9.7693C3.00012 7.64507 3.70451 5.68534 4.98338 4.25085C6.27752 2.79939 8.05326 2 9.98407 2C11.4272 2 12.7488 2.47179 13.9121 3.40215C14.4991 3.87176 15.0313 4.44651 15.5001 5.11691C15.9691 4.44651 16.5011 3.87176 17.0884 3.40215C18.2517 2.47179 19.5733 2 21.0164 2C22.947 2 24.7229 2.79939 26.0171 4.25085C27.2959 5.68534 28.0001 7.64507 28.0001 9.7693C28.0001 11.9556 27.2124 13.957 25.5208 16.0676C24.0075 17.9559 21.8327 19.8725 19.3144 22.0918C18.4538 22.8499 17.4786 23.7095 16.4664 24.6249C16.1992 24.8667 15.8558 25 15.5001 25ZM9.98407 3.51437C8.46716 3.51437 7.07365 4.1404 6.05989 5.27726C5.03107 6.43129 4.46439 8.02652 4.46439 9.7693C4.46439 11.6081 5.12529 13.2527 6.60711 15.1016C8.03934 16.8887 10.1697 18.766 12.6362 20.9397L12.6408 20.9437C13.5031 21.7036 14.4806 22.5651 15.498 23.485C16.5215 22.5634 17.5005 21.7005 18.3646 20.9393C20.831 18.7656 22.9611 16.8887 24.3933 15.1016C25.875 13.2527 26.5358 11.6081 26.5358 9.7693C26.5358 8.02652 25.9692 6.43129 24.9404 5.27726C23.9268 4.1404 22.5331 3.51437 21.0164 3.51437C19.9051 3.51437 18.8849 3.87965 17.9841 4.59996C17.1813 5.24215 16.622 6.05397 16.2942 6.62201C16.1255 6.91412 15.8288 7.08847 15.5001 7.08847C15.1715 7.08847 14.8747 6.91412 14.7061 6.62201C14.3784 6.05397 13.8192 5.24215 13.0162 4.59996C12.1153 3.87965 11.0951 3.51437 9.98407 3.51437Z" fill="white"/>
</g>
<defs>
<filter id="filter0_d" x="0.00012207" y="0" width="31" height="29" filterUnits="userSpaceOnUse" color-interpolation-filters="sRGB">
<feFlood flood-opacity="0" result="BackgroundImageFix"/>
<feColorMatrix in="SourceAlpha" type="matrix" values="0 0 0 0 0 0 0 0 0 0 0 0 0 0 0 0 0 0 127 0"/>
<feOffset dy="1"/>
<feGaussianBlur stdDeviation="1.5"/>
<feColorMatrix type="matrix" values="0 0 0 0 0.520833 0 0 0 0 0.520833 0 0 0 0 0.520833 0 0 0 1 0"/>
<feBlend mode="normal" in2="BackgroundImageFix" result="effect1_dropShadow"/>
<feBlend mode="normal" in="SourceGraphic" in2="effect1_dropShadow" result="shape"/>
</filter>
</defs>
</svg>
