<svg width="11" height="16" viewBox="0 0 11 16" fill="none" xmlns="http://www.w3.org/2000/svg">
<path d="M5.4446 15.0769C5.09894 15.0769 4.7894 14.9062 4.61664 14.6203C4.61481 14.6173 4.61305 14.6143 4.61129 14.6113L0.684524 7.76819C-0.2528 6.13473 -0.225923 4.1959 0.756433 2.58185C1.71748 1.00278 3.42449 0.0380604 5.32271 0.00119261C5.4038 -0.000397536 5.48533 -0.000397536 5.56636 0.00119261C7.46461 0.0380604 9.17162 1.00278 10.1327 2.58185C11.1151 4.1959 11.1419 6.1347 10.2046 7.76819L6.27785 14.6113C6.27608 14.6143 6.27432 14.6173 6.2725 14.6203C6.09976 14.9062 5.79026 15.0769 5.4446 15.0769ZM5.44457 0.942322C5.41058 0.942322 5.37668 0.942645 5.34284 0.943293C3.79335 0.973388 2.3989 1.76254 1.61272 3.0543C0.805269 4.38103 0.782939 5.97433 1.55303 7.31635L5.44457 14.098L9.33607 7.31638C10.1062 5.97433 10.0839 4.38103 9.27635 3.0543C8.49017 1.76257 7.09572 0.973388 5.54623 0.943293C5.51249 0.942645 5.47856 0.942322 5.44457 0.942322Z" fill="#D61016"/>
<path d="M5.44451 6.8317C4.21662 6.8317 3.21765 5.88059 3.21765 4.71151C3.21765 3.54243 4.21662 2.59132 5.44451 2.59132C6.67241 2.59132 7.67138 3.54243 7.67138 4.71151C7.67138 5.88059 6.67244 6.8317 5.44451 6.8317ZM5.44451 3.53362C4.76235 3.53362 4.20737 4.06202 4.20737 4.71151C4.20737 5.36099 4.76235 5.88939 5.44451 5.88939C6.12668 5.88939 6.68166 5.36099 6.68166 4.71151C6.68166 4.06202 6.12668 3.53362 5.44451 3.53362Z" fill="#D61016"/>
</svg>
