<svg width="16" height="16" viewBox="0 0 16 16" fill="none" xmlns="http://www.w3.org/2000/svg">
<path d="M15.4414 5.69681C15.3422 5.37824 15.0714 5.15269 14.7523 5.12256L10.4 4.71025L8.67998 0.508081C8.55299 0.199353 8.26403 9.53674e-05 7.94241 9.53674e-05C7.62079 9.53674e-05 7.33172 0.199353 7.20553 0.508081L5.48549 4.71025L1.13254 5.12256C0.813446 5.15329 0.543241 5.37884 0.443395 5.69681C0.344124 6.01538 0.435803 6.3648 0.677135 6.58566L3.9671 9.59601L2.99705 14.0543C2.92608 14.3821 3.04801 14.7211 3.30867 14.9177C3.44878 15.024 3.61338 15.077 3.77857 15.077C3.92051 15.077 4.06257 15.0376 4.18945 14.9584L7.94241 12.6168L11.6947 14.9584C11.9699 15.1301 12.3161 15.1143 12.5762 14.9177C12.8368 14.7211 12.9587 14.3821 12.8878 14.0543L11.9177 9.59601L15.2077 6.58566C15.4489 6.3648 15.5407 6.0161 15.4414 5.69681Z" fill="#D61016"/>
</svg>
