<svg width="16" height="16" viewBox="0 0 16 16" fill="none" xmlns="http://www.w3.org/2000/svg">
<path d="M3.74001 15.077C3.57483 15.077 3.41079 15.0232 3.2708 14.9176C3.01003 14.7204 2.88821 14.3814 2.95918 14.0543L3.92912 9.59593L0.639705 6.58573C0.397911 6.36547 0.305541 6.01665 0.404813 5.69748C0.504084 5.37891 0.774176 5.15337 1.09396 5.12252L5.44626 4.71021L7.167 0.508197C7.29388 0.199471 7.58284 9.53674e-05 7.90389 9.53674e-05C8.22494 9.53674e-05 8.5139 0.199471 8.64078 0.507477L10.3615 4.71021L14.7131 5.12252C15.0336 5.15265 15.3037 5.37891 15.403 5.69748C15.5022 6.01605 15.4104 6.36547 15.1686 6.58573L11.8792 9.59533L12.8492 14.0536C12.9203 14.3814 12.7983 14.7204 12.5377 14.917C12.2776 15.1136 11.9308 15.1288 11.6569 14.957L7.90389 12.6167L4.1509 14.9583C4.02402 15.0369 3.88265 15.077 3.74001 15.077ZM7.90389 11.6085C8.04653 11.6085 8.18779 11.6485 8.31478 11.7271L11.8567 13.9377L10.9413 9.72965C10.8759 9.43016 10.9734 9.11748 11.1951 8.91486L14.3011 6.07247L10.1918 5.68308C9.89599 5.65487 9.64154 5.46078 9.52594 5.1763L7.90389 1.21087L6.27989 5.1769C6.16555 5.45946 5.9111 5.65355 5.61593 5.68176L1.50612 6.07115L4.61194 8.91354C4.83441 9.11676 4.93173 9.42884 4.86582 9.72905L3.95109 13.9369L7.493 11.7271C7.61988 11.6485 7.76125 11.6085 7.90389 11.6085ZM5.41302 4.79147C5.41302 4.79147 5.41302 4.79219 5.41233 4.79279L5.41302 4.79147ZM10.3935 4.78955L10.3942 4.79087C10.3942 4.79015 10.3942 4.79015 10.3935 4.78955Z" fill="#D61016"/>
</svg>
