<svg width="40" height="47" viewBox="0 0 40 47" fill="none" xmlns="http://www.w3.org/2000/svg">
<path d="M39.804 39.1101L32.9351 27.0432C33.6313 26.7183 34.049 25.9757 34.0026 25.1403L33.4921 20.8705L36.416 17.8074C37.0657 17.1576 37.1121 16.0438 36.4624 15.2548L33.5385 12.0988L34.1418 7.78257C34.2346 6.85435 33.5849 5.92612 32.6567 5.74048L28.4333 4.90508L26.3912 1.14578C25.9735 0.263963 24.9524 -0.107326 24.0242 0.263963H23.9778L20.0792 2.074L16.2735 0.217552C15.8558 -0.0145035 15.3453 -0.0609146 14.8812 0.0783188C14.4171 0.217552 14.0458 0.54243 13.8137 0.960131L11.7252 4.71943L7.50182 5.46201C6.52718 5.64766 5.87743 6.52947 5.97025 7.55051L6.48077 11.8203L3.55687 14.8835C2.90711 15.5332 2.8607 16.6471 3.51046 17.4361L6.43436 20.5921L5.83102 24.9083C5.73819 25.7437 6.24872 26.5327 7.03771 26.8576L0.122445 39.1101C-0.0632 39.3886 -0.0167888 39.7599 0.122445 40.0383C0.308089 40.3168 0.586556 40.5024 0.911434 40.5024H8.33722L11.7252 46.3967C11.9109 46.6751 12.1893 46.8608 12.5142 46.8608C12.8391 46.8608 13.164 46.6751 13.3032 46.3967L19.94 35.0723L26.5768 46.5359C26.7624 46.8144 27.0409 47 27.3658 47C27.6907 47 28.0156 46.8144 28.1548 46.5359L31.5428 40.5024H38.9686C39.2935 40.5024 39.6183 40.3168 39.7576 40.0383C39.9896 39.7599 39.9896 39.3886 39.804 39.1101ZM12.5606 44.0761L9.68314 39.1101C9.4975 38.8316 9.21903 38.646 8.89415 38.646H2.48941L8.89415 27.3217L11.5396 27.7858L13.5817 31.5451C13.9994 32.4269 15.0204 32.7982 15.9486 32.4269H15.9951L17.8979 31.5451L18.8261 33.1695L12.5606 44.0761ZM15.2525 30.7561C15.2061 30.7561 15.2061 30.7561 15.2061 30.7561L13.164 26.904C12.8855 26.4399 12.4214 26.0686 11.8645 26.0222L7.59464 25.2332L8.19799 20.9633C8.29081 20.4064 8.10516 19.8031 7.73387 19.4318L4.85638 16.2758L7.78029 13.2127C8.19799 12.795 8.38363 12.238 8.29081 11.6811L7.78029 7.45769C7.78029 7.45769 7.78029 7.41128 7.8267 7.36487L12.0501 6.62229C12.5606 6.52947 13.0712 6.20459 13.3496 5.69407L15.4381 1.93476L19.2438 3.79121C19.7544 4.06968 20.4041 4.06968 20.9146 3.79121L24.7668 2.02759C24.8132 2.02759 24.8132 2.02759 24.8132 2.02759L26.8553 5.87971C27.1337 6.34382 27.5978 6.71511 28.1084 6.76153L32.3318 7.59693L31.7284 11.8668C31.6356 12.4237 31.8213 13.027 32.1926 13.3983L35.1165 16.5543L32.1461 19.6174C31.7284 20.0351 31.5428 20.592 31.6356 21.149L32.1461 25.4188L27.9691 26.115C27.4586 26.2078 26.9481 26.5327 26.6696 27.0432L24.5811 30.8025L20.7754 28.9461C20.2649 28.6676 19.6151 28.6676 19.1046 28.9461L15.2525 30.7561ZM31.0323 38.646C30.7074 38.646 30.3825 38.8316 30.2433 39.1101L27.3658 44.2153L20.8218 32.891C20.7754 32.7518 20.729 32.659 20.6362 32.5661L19.6151 30.7561L19.94 30.6169L23.7457 32.4733C24.0242 32.6125 24.3027 32.659 24.5811 32.659C25.2309 32.659 25.8806 32.3341 26.2055 31.7307L28.294 27.9714L31.0787 27.4609L37.437 38.646H31.0323Z" fill="#D61016"/>
<path d="M29.2222 16.3682C29.2222 11.2629 25.0452 7.08594 19.9399 7.08594C14.8347 7.08594 10.6577 11.2629 10.6577 16.3682C10.6577 21.4734 14.8347 25.6504 19.9399 25.6504C25.0452 25.6504 29.2222 21.4734 29.2222 16.3682ZM19.9399 23.794C15.8558 23.794 12.5142 20.4524 12.5142 16.3682C12.5142 12.284 15.8558 8.94238 19.9399 8.94238C24.0241 8.94238 27.3657 12.284 27.3657 16.3682C27.3657 20.4524 24.0241 23.794 19.9399 23.794Z" fill="#D61016"/>
</svg>
