<svg width="64" height="47" viewBox="0 0 64 47" fill="none" xmlns="http://www.w3.org/2000/svg">
<path d="M51.8125 15.0267H47.7832L48.9972 1.02335C48.9994 0.997986 48.9998 0.972995 48.9999 0.948005C48.9999 0.94587 49.0002 0.94386 49.0002 0.941726C49.0002 0.941349 49.0002 0.941098 49.0002 0.940722C49.0002 0.559586 48.7713 0.223659 48.4349 0.077609C48.4321 0.0763532 48.4293 0.0748465 48.4264 0.0735907C48.4056 0.0648001 48.3839 0.0572649 48.3622 0.0499812C48.3541 0.047344 48.3463 0.0440788 48.3382 0.0415672C48.3204 0.0361672 48.3022 0.0318976 48.2841 0.0275023C48.2713 0.0244884 48.2591 0.0208468 48.2462 0.0183352C48.2303 0.0151957 48.2138 0.0131867 48.1976 0.0108007C48.1823 0.00854022 48.1673 0.00590266 48.1519 0.00452128C48.1493 0.00427012 48.1469 0.00376739 48.1443 0.00351623C48.1278 0.00200927 48.1116 0.0022605 48.0952 0.0016326C48.0842 0.00125586 48.0734 0 48.0624 0H48.0507C48.0497 0 48.0487 0 48.0478 0H28.8764C28.3589 0 27.9389 0.421949 27.9389 0.941851C27.9389 1.4605 28.3589 1.8837 28.8764 1.8837H47.0406L45.1748 23.405C45.1746 23.4066 45.1746 23.4083 45.1743 23.4099L44.7036 28.8401H12.1273L12.6722 23.1893H18.8748C19.3927 23.1893 19.8123 22.7676 19.8123 22.2474C19.8123 21.7273 19.3927 21.3056 18.8748 21.3056H12.8539L14.0044 9.37607H23.8763C24.3942 9.37607 24.8138 8.95437 24.8138 8.43422C24.8138 7.91406 24.3942 7.49236 23.8763 7.49236H14.1862L14.7272 1.8837H25.1263C25.6426 1.8837 26.0639 1.4605 26.0639 0.941851C26.0639 0.421949 25.6426 0 25.1263 0H13.8763C13.8758 0 13.8754 0.000125511 13.8749 0.000125511C13.4346 -6.89892e-08 13.0526 0.31144 12.9602 0.743184C12.9596 0.746324 12.9584 0.749337 12.9578 0.752477C12.9531 0.77596 12.9499 0.799946 12.9468 0.824057C12.9459 0.831718 12.9443 0.839002 12.9436 0.846662C12.9434 0.848169 12.9431 0.84955 12.9429 0.851057L12.3024 7.49236H0.937504C0.419627 7.49236 0 7.91406 0 8.43422C0 8.95437 0.419627 9.37607 0.937504 9.37607H12.1207L10.9702 21.3056H7.62528C7.1074 21.3056 6.68778 21.7273 6.68778 22.2474C6.68778 22.7676 7.1074 23.1893 7.62528 23.1893H10.7885L10.162 29.6844C10.1619 29.6854 10.1619 29.6864 10.1618 29.6873L9.19316 39.731C9.19304 39.7322 9.19291 39.7334 9.19279 39.7344L9.19241 39.7381C9.19116 39.7511 9.19129 39.764 9.19054 39.777C9.18966 39.7943 9.18791 39.8113 9.18791 39.8289C9.18791 39.8296 9.18804 39.8304 9.18804 39.8313C9.18804 39.8555 9.18979 39.8794 9.19154 39.9032C9.19229 39.9109 9.19204 39.9187 9.19291 39.9262C9.19541 39.9506 9.19954 39.9745 9.20391 39.9984C9.20516 40.0054 9.20579 40.0126 9.20716 40.0195C9.21079 40.0376 9.21591 40.055 9.22066 40.0728C9.22391 40.0852 9.22654 40.0979 9.23029 40.1101C9.23141 40.1134 9.23291 40.1167 9.23391 40.1202C9.27929 40.2604 9.35629 40.3862 9.45679 40.4889C9.45866 40.4908 9.46016 40.4929 9.46204 40.4947C9.47204 40.5047 9.48291 40.5138 9.49341 40.5233C9.55804 40.5829 9.63104 40.6333 9.71091 40.6729C9.72754 40.6812 9.74391 40.6898 9.76091 40.697C9.76604 40.6993 9.77154 40.7008 9.77679 40.7028C9.80029 40.7122 9.82391 40.7212 9.84829 40.7289C9.85054 40.7295 9.85266 40.7299 9.85491 40.7307C9.88266 40.739 9.91066 40.7462 9.93929 40.7521C9.94304 40.7529 9.94691 40.7531 9.95054 40.7539C9.97779 40.759 10.0052 40.7634 10.033 40.7662C10.0337 40.7662 10.0342 40.7663 10.0348 40.7665C10.0655 40.7695 10.096 40.771 10.1263 40.771C10.1267 40.771 10.1272 40.7709 10.1277 40.7709H14.3012C14.7621 44.2812 17.7577 47 21.3758 47C24.9937 47 27.9894 44.2812 28.4502 40.7709H43.4877C43.9487 44.2812 46.9442 47 50.5622 47C54.1801 47 57.176 44.2812 57.637 40.7709H61.8115C61.8121 40.7709 61.8129 40.771 61.8135 40.771C61.8447 40.771 61.8755 40.7691 61.906 40.7661C61.9115 40.7656 61.9167 40.7644 61.9222 40.7638C61.9466 40.7609 61.9709 40.7575 61.9946 40.7528C62.0049 40.7508 62.0147 40.748 62.0249 40.7456C62.0432 40.7413 62.0617 40.7368 62.0797 40.7314C62.092 40.7278 62.1039 40.7235 62.1159 40.7194C62.1312 40.7141 62.1466 40.7086 62.1617 40.7024C62.1747 40.6973 62.1871 40.6916 62.1997 40.686C62.2135 40.6796 62.2272 40.673 62.2406 40.6661C62.2534 40.6596 62.2656 40.6528 62.2779 40.6458C62.2907 40.6382 62.3035 40.6305 62.3161 40.6224C62.3279 40.6149 62.3396 40.6072 62.3509 40.5992C62.3636 40.5903 62.3757 40.5808 62.3881 40.5713C62.3984 40.5631 62.4087 40.5551 62.4187 40.5466C62.4316 40.5356 62.4437 40.5242 62.456 40.5125C62.4645 40.5044 62.4734 40.4963 62.4816 40.4878C62.4946 40.4745 62.507 40.4604 62.5194 40.4462C62.526 40.4386 62.5329 40.4312 62.5392 40.4234C62.553 40.4063 62.5655 40.3887 62.578 40.371C62.5822 40.3648 62.587 40.3591 62.5911 40.3528C62.6064 40.3298 62.6207 40.3062 62.634 40.2818C62.635 40.2803 62.636 40.2789 62.6366 40.2773C62.6507 40.2512 62.6637 40.2244 62.6754 40.1968C62.6786 40.1889 62.6811 40.1808 62.6842 40.1728C62.6919 40.1534 62.6994 40.1339 62.7057 40.1137C62.7099 40.1006 62.7129 40.0872 62.7165 40.074C62.7206 40.0583 62.725 40.0427 62.7285 40.0268C62.7316 40.0126 62.7336 39.998 62.736 39.9836C62.7381 39.9709 62.7409 39.9585 62.7425 39.9455C62.7822 39.6256 63.5164 33.7083 63.8443 29.8822C63.8446 29.8785 63.8448 29.8748 63.8451 29.8711C63.9395 28.7682 64 27.8394 64 27.2707C64 20.5194 58.5327 15.0267 51.8125 15.0267ZM47.6198 16.9106H51.4552L50.9653 22.5612H47.1299L47.6198 16.9106ZM21.3761 45.1162C18.4739 45.1162 16.1129 42.7442 16.1129 39.8287C16.1129 36.9133 18.4741 34.5413 21.3761 34.5413C24.2781 34.5413 26.6391 36.9133 26.6391 39.8287C26.6391 42.7442 24.2781 45.1162 21.3761 45.1162ZM50.5622 45.1162C47.6602 45.1162 45.2993 42.7442 45.2993 39.8287C45.2993 36.9133 47.6603 34.5413 50.5622 34.5413C53.4643 34.5413 55.8253 36.9133 55.8253 39.8287C55.8253 42.7442 53.4643 45.1162 50.5622 45.1162ZM60.9831 38.8865H57.6372C57.1765 35.3759 54.1807 32.657 50.5624 32.657C46.9444 32.657 43.9487 35.3761 43.4879 38.8865H28.4506C27.9899 35.3759 24.9942 32.657 21.3761 32.657C17.7579 32.657 14.7621 35.3761 14.3013 38.8865H11.1583L11.9457 30.7233H45.5627V30.7238C45.5632 30.7238 45.5636 30.7238 45.5641 30.7238C45.5954 30.7238 45.6266 30.7221 45.6573 30.7189C45.6631 30.7184 45.6687 30.7172 45.6744 30.7164C45.6989 30.7135 45.7233 30.71 45.7473 30.7052C45.7577 30.7031 45.7678 30.7002 45.7781 30.6977C45.7968 30.6932 45.8156 30.6888 45.8338 30.6832C45.8463 30.6795 45.8582 30.675 45.8703 30.6707C45.8861 30.6652 45.9018 30.6598 45.9171 30.6535C45.9302 30.6481 45.9428 30.6421 45.9556 30.636C45.9694 30.6296 45.9833 30.6232 45.9967 30.6162C46.0094 30.6094 46.0219 30.6021 46.0346 30.5948C46.0474 30.5873 46.0602 30.5796 46.0727 30.5716C46.0848 30.5637 46.0963 30.5554 46.1079 30.5471C46.1203 30.5383 46.1323 30.5293 46.1443 30.5199C46.1551 30.5112 46.1657 30.5023 46.1762 30.4931C46.1881 30.4828 46.1997 30.4723 46.2109 30.4613C46.2204 30.4522 46.2299 30.4428 46.2392 30.4331C46.2504 30.4213 46.2613 30.4091 46.2721 30.3967C46.2804 30.3869 46.2887 30.3771 46.2967 30.367C46.3071 30.3539 46.3169 30.3403 46.3267 30.3266C46.3341 30.3163 46.3412 30.306 46.3482 30.2955C46.3573 30.2813 46.3661 30.2667 46.3744 30.2519C46.3808 30.2408 46.3873 30.2298 46.3931 30.2185C46.4009 30.2037 46.4077 30.1886 46.4148 30.1734C46.4203 30.1612 46.4259 30.1493 46.4309 30.1367C46.4371 30.1219 46.4422 30.1067 46.4476 30.0915C46.4522 30.0781 46.4571 30.0646 46.4612 30.0508C46.4653 30.0363 46.4687 30.0213 46.4724 30.0065C46.4761 29.9916 46.4801 29.9767 46.4829 29.9615C46.4858 29.9467 46.4876 29.9317 46.4898 29.9166C46.4921 29.901 46.4947 29.8857 46.4962 29.8699C46.4964 29.8676 46.4969 29.8655 46.4971 29.8632L46.9669 24.4444H51.8122C54.6846 24.4444 55.9801 25.9396 57.3515 27.5226C58.4831 28.8288 59.7465 30.2862 61.894 30.6417C61.6212 33.5388 61.1804 37.258 60.9831 38.8865ZM62.0542 28.7542C60.6611 28.4689 59.804 27.485 58.7656 26.2864C57.467 24.7876 55.8816 22.9586 52.8425 22.6177L53.3275 17.0234C58.298 17.7619 62.125 22.0754 62.125 27.271C62.125 27.624 62.0987 28.1369 62.0542 28.7542Z" fill="#D61016"/>
<path d="M21.3762 36.375C19.4809 36.375 17.9387 37.9242 17.9387 39.8285C17.9387 41.7328 19.4809 43.2819 21.3762 43.2819C23.2716 43.2819 24.8137 41.7328 24.8137 39.8285C24.8137 37.9243 23.2716 36.375 21.3762 36.375ZM21.3762 41.3982C20.5146 41.3982 19.8137 40.6941 19.8137 39.8285C19.8137 38.9628 20.5146 38.2587 21.3762 38.2587C22.2379 38.2587 22.9387 38.9628 22.9387 39.8285C22.9387 40.6941 22.2377 41.3982 21.3762 41.3982Z" fill="#D61016"/>
<path d="M50.5623 36.375C48.6669 36.375 47.1248 37.9242 47.1248 39.8285C47.1248 41.7328 48.6669 43.2819 50.5623 43.2819C52.4577 43.2819 53.9998 41.7328 53.9998 39.8285C53.9998 37.9243 52.4577 36.375 50.5623 36.375ZM50.5623 41.3982C49.7006 41.3982 48.9998 40.6941 48.9998 39.8285C48.9998 38.9628 49.7006 38.2587 50.5623 38.2587C51.4239 38.2587 52.1248 38.9628 52.1248 39.8285C52.1248 40.6941 51.4239 41.3982 50.5623 41.3982Z" fill="#D61016"/>
<path d="M8.87502 15.0273H4.29175C3.77387 15.0273 3.35425 15.449 3.35425 15.9692C3.35425 16.4893 3.77387 16.911 4.29175 16.911H8.87502C9.3929 16.911 9.81252 16.4893 9.81252 15.9692C9.81252 15.449 9.3929 15.0273 8.87502 15.0273Z" fill="#D61016"/>
</svg>
