<svg width="58" height="47" viewBox="0 0 58 47" fill="none" xmlns="http://www.w3.org/2000/svg">
<path d="M49.9299 7.62012H1.16113V9.94685H49.9299V7.62012Z" fill="#D61016"/>
<path d="M50.1621 15.0654H1.16113V17.3922H50.1621V15.0654Z" fill="#D61016"/>
<path d="M14.8281 24.314H9.26611C8.63908 24.314 8.12817 23.8022 8.12817 23.1739V23.1274C8.12817 22.4992 8.63908 21.9873 9.26611 21.9873H14.8281C15.4551 21.9873 15.966 22.4992 15.966 23.1274V23.1739C15.966 23.8022 15.4551 24.314 14.8281 24.314Z" fill="#D61016"/>
<path d="M20.3436 29.899H9.26611C8.63908 29.899 8.12817 29.3871 8.12817 28.7589V28.7124C8.12817 28.0841 8.63908 27.5723 9.26611 27.5723H20.3436C20.9706 27.5723 21.4815 28.0841 21.4815 28.7124V28.7589C21.4815 29.3871 20.9706 29.899 20.3436 29.899Z" fill="#D61016"/>
<path d="M51.0911 30.8877V33.2493C53.7153 33.7845 55.6893 36.1228 55.6893 38.9033C55.6893 42.0909 53.0999 44.6736 49.93 44.6736C46.76 44.6736 44.1706 42.0793 44.1706 38.9033C44.1706 38.7055 44.1822 38.5194 44.1938 38.3332H41.8599C41.8483 38.5194 41.8367 38.7172 41.8367 38.9033C41.8367 43.3706 45.4595 47.0003 49.9183 47.0003C54.3772 47.0003 58 43.3706 58 38.9033C58.0116 34.8315 55.0042 31.4577 51.0911 30.8877Z" fill="#D61016"/>
<path d="M46.2258 0H4.85365C2.18298 0 0 2.18713 0 4.86287V33.4584C0 36.1458 2.18298 38.3329 4.85365 38.3329H44.1822C44.2634 37.4953 44.5305 36.7042 44.9369 36.0062C45.7497 34.6101 47.1315 33.5864 48.7571 33.249C49.1287 33.1676 49.5235 33.1327 49.9183 33.1327C50.3131 33.1327 50.7079 33.1792 51.0794 33.249V4.86287C51.0911 2.18713 48.9081 0 46.2258 0ZM42.3707 36.0062H4.85365C3.46026 36.0062 2.31071 34.8661 2.31071 33.4584V4.86287C2.31071 3.46683 3.44865 2.3151 4.85365 2.3151H46.2258C47.6192 2.3151 48.7571 3.4552 48.7571 4.86287V30.8757C45.8426 31.3062 43.4042 33.3072 42.3707 36.0062Z" fill="#D61016"/>
<path d="M48.8963 41.6131L47.3868 40.1008C46.9687 39.6819 46.9687 38.9956 47.3868 38.5651L47.5029 38.4488C47.9209 38.03 48.606 38.03 49.0356 38.4488L49.3723 38.7862L50.8354 37.3087C51.2534 36.8782 51.9385 36.8782 52.3681 37.297L52.4843 37.4134C52.9139 37.8322 52.9139 38.5186 52.4959 38.949L49.8484 41.6131C49.5814 41.8807 49.1633 41.8807 48.8963 41.6131Z" fill="#D61016"/>
</svg>
