<svg width="47" height="47" viewBox="0 0 47 47" fill="none" xmlns="http://www.w3.org/2000/svg">
<path d="M45.9748 23.4797H45.5855C45.0486 23.4797 44.5923 23.0469 44.5789 22.5059C44.0689 11.3341 34.9018 2.40748 23.6946 2.40748C15.8966 2.40748 8.78303 6.81669 5.19942 13.6469L6.74292 13.0924C7.26637 12.903 7.85693 13.1871 8.03141 13.7145L8.16563 14.0797C8.35353 14.6072 8.07168 15.2023 7.54823 15.3781L3.02509 16.9876C2.62244 17.1229 2.19294 16.9471 2.00504 16.5548L0.0991448 12.5243C-0.142447 12.0104 0.0723013 11.4017 0.582329 11.1583L0.931295 10.996C1.44132 10.7525 2.0453 10.9689 2.28689 11.4829L2.91772 12.8219C4.60886 9.46763 7.07846 6.57324 10.1655 4.35511C14.1249 1.5013 18.8091 0 23.6946 0C36.1903 0 46.4311 9.96806 46.9948 22.4248C47.0216 22.9928 46.5653 23.4797 45.9748 23.4797Z" fill="#D61016"/>
<path d="M1.02533 23.4795H1.41456C1.95143 23.4795 2.40777 23.9123 2.4212 24.4533C2.93122 35.6251 12.0983 44.5517 23.3055 44.5517C31.1035 44.5517 38.2171 40.1425 41.8007 33.3123L40.2572 33.8668C39.7337 34.0562 39.1432 33.7722 38.9687 33.2447L38.8345 32.8795C38.6466 32.352 38.9284 31.7569 39.4519 31.5811L43.975 29.9716C44.3776 29.8363 44.8071 30.0122 44.995 30.4044L46.9009 34.4755C47.1425 34.9894 46.9278 35.5981 46.4178 35.8415L46.0688 36.0038C45.5588 36.2473 44.9548 36.0309 44.7132 35.5169L44.0824 34.1779C42.3912 37.5322 39.9216 40.4265 36.8346 42.6447C32.8752 45.4985 28.191 46.9998 23.3055 46.9998C10.8098 46.9998 0.568991 37.0317 0.00527647 24.575C-0.0215671 23.9664 0.434773 23.4795 1.02533 23.4795Z" fill="#D61016"/>
</svg>
