<svg width="48" height="48" viewBox="0 0 48 48" fill="none" xmlns="http://www.w3.org/2000/svg">
<path d="M45.5625 0.5625H2.4375C1.40039 0.5625 0.5625 1.40039 0.5625 2.4375V45.5625C0.5625 46.5996 1.40039 47.4375 2.4375 47.4375H45.5625C46.5996 47.4375 47.4375 46.5996 47.4375 45.5625V2.4375C47.4375 1.40039 46.5996 0.5625 45.5625 0.5625ZM43.6875 43.6875H32.9004V29.2852H38.9941L39.9082 22.2129H32.9004V17.6953C32.9004 15.6445 33.4688 14.25 36.4043 14.25H40.1484V7.92188C39.498 7.83398 37.2773 7.64062 34.6875 7.64062C29.2852 7.64062 25.5879 10.9395 25.5879 16.9922V22.207H19.4824V29.2793H25.5938V43.6875H4.3125V4.3125H43.6875V43.6875Z" fill="#D61016"/>
</svg>
