<svg width="58" height="45" viewBox="0 0 58 45" fill="none" xmlns="http://www.w3.org/2000/svg">
<path d="M58 4.06244V40.9374C58 43.0301 56.4322 44.6249 54.375 44.6249H50.75V11.159L29 27.0522L7.25 11.159V44.6249H3.625C1.56781 44.6249 0 43.0301 0 40.9374V4.06244C0 3.01519 0.387875 2.09332 1.03856 1.44063C1.37745 1.09572 1.78105 0.823635 2.22538 0.640561C2.6697 0.457487 3.14567 0.367158 3.625 0.374945H4.83394L29 18.1985L53.1661 0.374945H54.375C55.4045 0.374945 56.3107 0.769508 56.9614 1.44063C57.6121 2.09332 58 3.01519 58 4.06244Z" fill="#D61016"/>
</svg>
