<svg width="48" height="47" viewBox="0 0 48 47" fill="none" xmlns="http://www.w3.org/2000/svg">
<path d="M23.9935 11.4422C17.1791 11.4422 11.6795 16.8274 11.6795 23.5C11.6795 30.1726 17.1791 35.5578 23.9935 35.5578C30.808 35.5578 36.3076 30.1726 36.3076 23.5C36.3076 16.8274 30.808 11.4422 23.9935 11.4422ZM23.9935 31.3367C19.5867 31.3367 15.9903 27.8152 15.9903 23.5C15.9903 19.1848 19.5867 15.6633 23.9935 15.6633C28.4004 15.6633 31.9968 19.1848 31.9968 23.5C31.9968 27.8152 28.4004 31.3367 23.9935 31.3367ZM36.812 8.13825C35.2209 8.13825 33.9361 9.39635 33.9361 10.9543C33.9361 12.5122 35.2209 13.7703 36.812 13.7703C38.403 13.7703 39.6879 12.5181 39.6879 10.9543C39.6883 10.5843 39.6143 10.2179 39.4699 9.87608C39.3256 9.53421 39.1137 9.22359 38.8466 8.96201C38.5794 8.70042 38.2622 8.49301 37.9131 8.35166C37.564 8.2103 37.1898 8.13778 36.812 8.13825ZM47.9973 23.5C47.9973 20.2548 48.0273 17.039 47.8412 13.7997C47.6551 10.0372 46.7785 6.6979 43.9687 3.94654C41.1528 1.1893 37.7486 0.33685 33.9061 0.154602C30.5919 -0.0276463 27.3077 0.00174867 23.9996 0.00174867C20.6854 0.00174867 17.4012 -0.0276463 14.093 0.154602C10.2505 0.33685 6.84028 1.19518 4.03043 3.94654C1.21458 6.70378 0.344011 10.0372 0.157888 13.7997C-0.028234 17.0449 0.00178584 20.2607 0.00178584 23.5C0.00178584 26.7393 -0.028234 29.961 0.157888 33.2003C0.344011 36.9628 1.22059 40.3021 4.03043 43.0535C6.84628 45.8107 10.2505 46.6632 14.093 46.8454C17.4072 47.0276 20.6914 46.9983 23.9996 46.9983C27.3137 46.9983 30.5979 47.0276 33.9061 46.8454C37.7486 46.6632 41.1588 45.8048 43.9687 43.0535C46.7845 40.2962 47.6551 36.9628 47.8412 33.2003C48.0333 29.961 47.9973 26.7452 47.9973 23.5ZM42.7139 37.3626C42.2756 38.4326 41.7472 39.2321 40.9007 40.0552C40.0541 40.8841 39.2436 41.4015 38.1509 41.8306C34.9928 43.0593 27.4938 42.783 23.9935 42.783C20.4932 42.783 12.9883 43.0593 9.83024 41.8365C8.73753 41.4074 7.92099 40.89 7.08044 40.0611C6.23388 39.2321 5.70553 38.4385 5.26725 37.3685C4.01843 34.2703 4.30061 26.9274 4.30061 23.5C4.30061 20.0726 4.01843 12.7238 5.26725 9.63151C5.70553 8.56153 6.23388 7.76199 7.08044 6.93894C7.92699 6.11588 8.73753 5.59265 9.83024 5.16349C12.9883 3.94066 20.4932 4.21697 23.9935 4.21697C27.4938 4.21697 34.9988 3.94066 38.1569 5.16349C39.2496 5.59265 40.0661 6.11 40.9067 6.93894C41.7532 7.76787 42.2816 8.56153 42.7199 9.63151C43.9687 12.7238 43.6865 20.0726 43.6865 23.5C43.6865 26.9274 43.9687 34.2703 42.7139 37.3626Z" fill="#D61016"/>
</svg>
