<svg width="47" height="47" viewBox="0 0 47 47" fill="none" xmlns="http://www.w3.org/2000/svg">
<path d="M45.12 0H1.88C0.840125 0 0 0.840125 0 1.88V45.12C0 46.1599 0.840125 47 1.88 47H45.12C46.1599 47 47 46.1599 47 45.12V1.88C47 0.840125 46.1599 0 45.12 0ZM13.9414 40.0499H6.96775V17.6191H13.9414V40.0499ZM10.4575 14.5524C9.65807 14.5524 8.87659 14.3153 8.21188 13.8712C7.54718 13.427 7.02911 12.7958 6.72318 12.0572C6.41725 11.3186 6.3372 10.5059 6.49317 9.72182C6.64913 8.93775 7.03409 8.21753 7.59937 7.65225C8.16466 7.08697 8.88487 6.702 9.66895 6.54604C10.453 6.39008 11.2657 6.47012 12.0043 6.77605C12.7429 7.08198 13.3742 7.60006 13.8183 8.26476C14.2624 8.92946 14.4995 9.71094 14.4995 10.5104C14.4936 12.7429 12.6841 14.5524 10.4575 14.5524ZM40.0499 40.0499H33.0821V29.14C33.0821 26.5374 33.0351 23.1945 29.4573 23.1945C25.8324 23.1945 25.2743 26.0262 25.2743 28.952V40.0499H18.3124V17.6191H24.9981V20.6859H25.0921C26.0204 18.9234 28.294 17.061 31.6898 17.061C38.7515 17.061 40.0499 21.7081 40.0499 27.7476V40.0499Z" fill="#D61016"/>
</svg>
