<svg width="48" height="50" viewBox="0 0 48 50" fill="none" xmlns="http://www.w3.org/2000/svg">
<path d="M42.8571 0.5H5.14286C2.30357 0.5 0 2.85156 0 5.75V44.25C0 47.1484 2.30357 49.5 5.14286 49.5H42.8571C45.6964 49.5 48 47.1484 48 44.25V5.75C48 2.85156 45.6964 0.5 42.8571 0.5ZM37.6179 17.8687C37.6393 18.175 37.6393 18.4922 37.6393 18.7984C37.6393 28.2812 30.5679 39.2078 17.6464 39.2078C13.6607 39.2078 9.96429 38.0266 6.85714 35.9922C7.425 36.0578 7.97143 36.0797 8.55 36.0797C11.8393 36.0797 14.8607 34.9422 17.2714 33.0172C14.1857 32.9516 11.5929 30.8844 10.7036 28.0406C11.7857 28.2047 12.7607 28.2047 13.875 27.9094C10.6607 27.2422 8.25 24.3547 8.25 20.8656V20.7781C9.18214 21.3141 10.275 21.6422 11.4214 21.6859C10.4576 21.0315 9.66748 20.1436 9.12158 19.1016C8.57567 18.0595 8.29096 16.8958 8.29286 15.7141C8.29286 14.3797 8.63571 13.1547 9.24643 12.0938C12.7071 16.4469 17.9036 19.2906 23.7321 19.5969C22.7357 14.7297 26.3036 10.7812 30.5893 10.7812C32.6143 10.7812 34.4357 11.6453 35.7214 13.0453C37.3071 12.7391 38.8286 12.1375 40.1786 11.3172C39.6536 12.9797 38.55 14.3797 37.0929 15.2656C38.5071 15.1125 39.8786 14.7078 41.1429 14.15C40.1893 15.5828 38.9893 16.8516 37.6179 17.8687Z" fill="#D61016"/>
</svg>
