<svg width="57" height="39" viewBox="0 0 57 39" fill="none" xmlns="http://www.w3.org/2000/svg">
<path d="M54.912 6.21709C54.5982 5.04838 53.983 3.98259 53.1278 3.12637C52.2727 2.27016 51.2077 1.65356 50.0394 1.33828C45.7389 0.181641 28.5 0.181641 28.5 0.181641C28.5 0.181641 11.2611 0.18164 6.96064 1.33213C5.79182 1.64638 4.72626 2.26264 3.87097 3.11901C3.01568 3.97539 2.40077 5.04172 2.08799 6.21094C0.9375 10.5176 0.9375 19.5 0.9375 19.5C0.9375 19.5 0.9375 28.4824 2.08799 32.7829C2.72168 35.1577 4.59199 37.028 6.96064 37.6617C11.2611 38.8184 28.5 38.8184 28.5 38.8184C28.5 38.8184 45.7389 38.8184 50.0394 37.6617C52.4142 37.028 54.2783 35.1577 54.912 32.7829C56.0625 28.4824 56.0625 19.5 56.0625 19.5C56.0625 19.5 56.0625 10.5176 54.912 6.21709ZM23.0244 27.7441V11.2559L37.2979 19.4385L23.0244 27.7441Z" fill="#D61016"/>
</svg>
